# xmcd
#
# Track frame offsets: 
#        150
#        13340
#        26040
#        36689
#        49643
#        61772
#        72027
#        81575
#        94416
#        105091
#        114597
#        129871
#        141720
#        154737
#        164841
#        177733
#        188164
#        199908
#        210846
#        220617
#
# Disc length: 3127 seconds
#
# Revision: 2
# Processed by: cddbd v1.5.2PL0 Copyright (c) Steve Scherf et al.
# Submitted via: ExactAudioCopyFreeDBPlugin 1.0
#
DISCID=290c3514
DTITLE=Jim Reeves - 2000 - The legendary Jim Reeves
DYEAR=2000
DGENRE=Country
TTITLE0=Danny Boy
TTITLE1=I Can't Stop Loving You
TTITLE2=Am I That Easy to Forget
TTITLE3=Have I Told You Lately That I Love You
TTITLE4=Maria Elena
TTITLE5=Making Believe
TTITLE6=Hawaiian Wedding Song
TTITLE7=Goodnight Irene
TTITLE8=He'll Have to Go
TTITLE9=Billy Bayou
TTITLE10=Blue Side of Lonesome
TTITLE11=Is It Really Over
TTITLE12=Distant Drums
TTITLE13=Is It Really Over
TTITLE14=Four Walls
TTITLE15=Am I Losing You
TTITLE16=I Missed Me
TTITLE17=I Guess I'm Crazy
TTITLE18=I Won't Come in While He's There
TTITLE19=This Is It
EXTD=
EXTT0=
EXTT1=
EXTT2=
EXTT3=
EXTT4=
EXTT5=
EXTT6=
EXTT7=
EXTT8=
EXTT9=
EXTT10=
EXTT11=
EXTT12=
EXTT13=
EXTT14=
EXTT15=
EXTT16=
EXTT17=
EXTT18=
EXTT19=
PLAYORDER=
